# xmcd
#
# Track frame offsets: 
#        150
#        32983
#        57650
#        70165
#        89831
#        107963
#        127763
#        146038
#        173288
#        184538
#        205388
#        223013
#
# Disc length: 4724 seconds
#
# Revision: 0
# Processed by: cddbd v1.5.2PL0 Copyright (c) Steve Scherf et al.
# Submitted via: ExactAudioCopy v0.95b3
#
DISCID=b612720c
DTITLE=Jimi Hendrix  - Atlanta 4-7-1970 Cd2  FLAC
DYEAR=1900
DGENRE=
TTITLE0=Voodoo Child (slight return)
TTITLE1=Stone Free
TTITLE2=Star Spangled Banner
TTITLE3=Straight Ahead
TTITLE4=Hey Baby (The Land Of The New Rising Sun)
TTITLE5=Lord I Sing The Blues For Me And You
TTITLE6=Ezy Rider Working Jam
TTITLE7=Midnight Blues Jam
TTITLE8=Gypsy Boy Instrumental Theme
TTITLE9=My Friend
TTITLE10=1983
TTITLE11=Second Jam Session
EXTD=
EXTT0=
EXTT1=
EXTT2=
EXTT3=
EXTT4=
EXTT5=
EXTT6=
EXTT7=
EXTT8=
EXTT9=
EXTT10=
EXTT11=
PLAYORDER=
